<?xml version="1.0" encoding="UTF-8"?>
<svg version="1.1" viewBox="0 0 1920 2048" width="1280" height="1280" xmlns="http://www.w3.org/2000/svg">
<path transform="translate(0)" d="m0 0h1920v2048h-1920z" fill="#FEFEFE"/>
<path transform="translate(94,237)" d="m0 0h804v947h-804z" fill="#00FE00"/>
<path transform="translate(1034,256)" d="m0 0h224v446l13-10 14-11 16-13 26-20 17-13 19-14 17-12 30-20 18-11 21-12 23-12 31-14 32-12 34-10 29-7 1-255h207v909h-207v-469l-17 6-31 13-30 14-30 15-23 13-17 10-24 15-19 13-18 13-17 13-14 11-14 12-11 9-17 16-10 9-30 30-7 8-11 12-1 237h-223l-1-1z" fill="#FEFEFE"/>
<path transform="translate(268,257)" d="m0 0h1v46l-2 480v72l2 22 4 20 8 24 9 19 12 18 9 11 16 16 16 12 13 8 19 10 24 9 26 7 23 4 22 2h26l29-4 30-7 20-7 20-9 18-10 14-10 11-9 10-9 7-8 12-15 9-14 8-14 10-23 8-25 5-21 4-25 2-22 1-22v-17l-2-38-3-27-4-27-7-36-9-38-14-47-15-43-12-30-13-30-16-33-11-21-16-27-14-21 4-4 20-14 18-13 17-12 18-13 34-24 15-11 4 1 14 19 12 17 18 27 13 21 15 26 13 24 11 23 13 28 16 40 13 38 9 31 8 32 6 29 5 31 4 36 2 29v54l-3 38-5 36-6 28-8 30-10 29-11 26-8 16-10 19-14 22-14 19-11 13-9 10-12 13-12 11-13 11-19 14-19 12-18 10-25 12-29 11-31 9-35 7-34 4-36 2h-20l-38-2-35-4-23-4-23-5-19-5-36-12-21-9-19-9-24-14-20-14-16-13-15-14-7-7-9-11-11-14-12-19-11-21-9-23-6-22-4-22-2-18v-483l28-28 7-8 45-45 7-8 47-47 7-8z" fill="#FEFEFE"/>
<path transform="translate(1021,237)" d="m0 0h804v947h-804zm13 19v908l1 1h223l1-237 15-16 11-12 29-29 8-7 13-12 11-9 15-13 13-10 21-16 19-13 21-14 13-8 15-9 21-12 29-15 31-15 33-14 18-7 4-1v469h207v-909h-207l-1 255-40 10-26 8-36 14-28 13-25 13-22 13-22 14-16 11-17 12-19 14-20 15-28 22-16 13-13 10-12 9v-446z" fill="#00FE00"/>
<path transform="translate(94,237)" d="m0 0h804v947h-804zm299 19-100 1v584l3 29 6 26 8 21 8 15 10 14 12 14 10 9 16 11 14 8 21 9 25 7 21 4 29 3 25-1 29-4 20-5 22-8 21-11 16-11 12-11 13-13 11-15 9-15 10-21 7-20 6-22 5-29 3-36v-46l-3-40-6-41-7-35-6-24-12-40-10-28-13-32-13-28-9-19-12-22-15-27-13-21-14-22-11-16v-4l108-78 12-9v-1zm-125 1-25 25-7 8-47 47-7 8-45 45-7 8-22 22v483l4 31 6 24 5 15 9 21 9 17 14 21 13 16 12 13 8 8 8 7 14 11 17 12 15 9 22 12 25 11 25 9 26 8 27 6 22 4 31 4 24 2 24 1h20l36-2 34-4 35-7 24-7 21-7 24-10 24-12 20-12 17-12 13-10 14-12 16-15 18-20 13-17 12-17 12-20 12-22 13-30 9-25 8-27 7-30 5-30 4-38 1-16v-54l-3-40-5-39-6-32-9-39-8-28-12-37-11-29-13-31-13-27-8-17-12-22-16-28-12-19-18-27-12-17-15-20-4 1-18 13-19 13-16 12-19 13-16 12-13 9-17 12-7 5 7 11 13 21 12 21 14 27 13 27 13 31 11 28 14 40 12 40 10 40 7 36 4 25 3 23 2 25 1 24v17l-2 35-4 28-5 23-6 20-8 21-8 16-9 16-9 12-9 11-9 10-8 7-15 12-18 11-17 9-20 8-20 6-22 5-29 4h-26l-28-3-25-5-21-6-25-10-19-10-17-12-11-9-16-16-11-15-9-15-7-15-8-24-4-20-2-22v-72l2-480v-46z" fill="#00FE00"/>
<path transform="translate(1580,719)" d="m0 0h1v445l-1 1h-303v-235l10-10 7-8 29-29 8-7 13-12 11-9 14-12 13-10 20-15 20-14 23-15 21-13 21-12 28-15 24-12 31-14z" fill="#00FE00"/>
<path transform="translate(994,207)" d="m0 0h856v1007h-856zm27 30v947h804v-947z" fill="#FEFEFE"/>
<path transform="translate(67,207)" d="m0 0h856v1007h-856zm27 30v947h804v-947z" fill="#FEFEFE"/>
<path transform="translate(1277,256)" d="m0 0h304v244l-9 3-30 9-29 10-36 15-39 19-27 15-26 16-30 20-14 10-19 14-15 12-14 11-15 13h-1z" fill="#00FE00"/>
<path transform="translate(971,179)" d="m0 0h902v1060h-902zm23 28v1007h856v-1007z" fill="#00FE00"/>
<path transform="translate(44,179)" d="m0 0h902v1060h-902zm23 28v1007h856v-1007z" fill="#00FE00"/>
<path transform="translate(393,1294)" d="m0 0h19l19 2 20 5 16 7 14 9 11 10 10 13 8 16 5 15 3 15 1 10v27l-3 22-4 15-7 16-9 13-11 12-14 10-16 8-17 5-12 2-12 1h-19l-20-2-21-5-16-7-11-7-12-11-9-11-8-14-6-14-4-17-2-18v-20l2-19 5-19 5-12 6-11 7-9 9-10 15-11 17-8 17-5 12-2z" fill="#000101"/>
<path transform="translate(44,1562)" d="m0 0h1829v23h-1829z" fill="#00FE00"/>
<path transform="translate(557,1298)" d="m0 0h133l19 2 16 4 13 7 10 10 6 10 4 10 2 11v17l-3 14-7 14-11 12-14 9-17 6 12 5 8 6 9 11 7 10 21 41 12 23 1 3h-79l-12-23-12-22-15-28-8-11-8-5-4-1-13-1v91h-70z" fill="#000101"/>
<path transform="translate(801,1298)" d="m0 0h69l1 78h74l1-78h69l1 1v223l-1 1h-69v-91h-76v91h-69z" fill="#000101"/>
<path transform="translate(1716,1298)" d="m0 0h76l8 20 22 59 33 88 20 53 1 5h-72l-3-7-8-27v-3h-80l-1 7-9 29-1 1h-70l1-6 11-29 63-168 8-21z" fill="#000101"/>
<path transform="translate(1062,1298)" d="m0 0h69l1 146 3 10 6 9 6 5 9 4 5 1h17l10-3 9-6 6-9 3-9 1-9 1-139h69v143l-3 19-5 15-7 13-7 9-10 10-10 7-12 6-15 4-12 2-12 1h-19l-26-2-20-4-16-7-12-9-9-9-9-13-5-11-5-20-1-7z" fill="#000101"/>
<path transform="translate(148,1294)" d="m0 0h17l20 2 19 5 16 8 11 8 8 8 9 13 8 16 3 10-6 2-53 12h-2l-6-14-7-8-10-6-11-3h-12l-12 3-11 7-7 9-4 8-3 11-1 6v39l3 15 4 11 6 8 9 6 10 3h21l11-4 8-6 7-11 5-13 2-8 10 2 49 15 2 1-1 8-6 16-7 13-7 9-8 9-12 9-17 8-15 4-19 2h-19l-21-2-21-5-17-8-9-7-10-9-10-13-8-14-5-12-4-16-2-15v-32l3-20 5-17 8-16 8-11 9-10 14-10 16-8 17-5 12-2z" fill="#000101"/>
<path transform="translate(393,256)" d="m0 0h268l-5 5-108 78-8 6 2 4 17 26 15 24 15 26 12 22 11 21 15 33 10 24 13 35 11 36 7 27 7 33 6 39 3 32 1 16v46l-3 36-5 29-8 29-10 24-10 19-12 17-11 12-13 13-17 12-14 8-15 7-20 7-22 5-24 3-25 1-29-3-25-5-21-6-23-10-14-8-16-12-12-11-9-11-10-15-8-16-7-18-6-26-3-29v-584zm-86 13-1 1v576l3 24 5 21 7 19 9 17 8 11 9 10 11 11 16 11 19 10 22 8 20 5 26 4 12 1h17l22-2 26-5 19-6 16-7 15-8 14-10 12-11 9-9 12-16 11-19 10-24 6-20 5-22 4-31 1-12v-59l-3-33-4-30-5-28-7-31-10-35-11-33-14-35-17-37-11-22-13-23-10-18-15-24-15-23-13-19-2-4 19-14 14-10 54-39 12-9v-1z" fill="#FEFEFE"/>
<path transform="translate(1445,1298)" d="m0 0h69l1 169 108 1v55h-178z" fill="#000101"/>
<path transform="translate(1580,719)" d="m0 0h1v445l-1 1h-303v-235l10-10 7-8 29-29 8-7 13-12 11-9 14-12 13-10 20-15 20-14 23-15 21-13 21-12 28-15 24-12 31-14zm-16 22-29 13-32 16-24 14-20 12-27 18-18 13-17 13-10 8-17 14-10 9-8 7-13 12-7 7-8 7-7 7-7 8-12 12-6 7v209h274v-406z" fill="#FEFEFE"/>
<path transform="translate(882,927)" d="m0 0h1v237l-1 1h-220l4-3 25-12 21-12 21-14 12-9 14-11 13-12 8-7 13-13 7-8 12-14 12-16 13-19 11-18 10-18 8-16 9-19z" fill="#FEFEFE"/>
<path transform="translate(1277,256)" d="m0 0h304v244l-9 3-30 9-29 10-36 15-39 19-27 15-26 16-30 20-14 10-19 14-15 12-14 11-15 13h-1zm15 15v367l5-3 14-12 14-11 21-16 17-12 24-16 21-13 23-13 33-17 30-13 36-13 31-9 5-2v-217z" fill="#FEFEFE"/>
<path transform="translate(1537,276)" d="m0 0h12l5 3 1 6-4 8-9 10-10 8-23 12-13 7-13 9-12 6-11 3h-17l-19-5-19-9-11-3h-10l-13 4-11 6-10 9-7 11-5 12-3 15v21l2 8 9 11 9 13 2 5-1 8-6 7-15 7-1 28-3 32-4 42-1 15-2 4h-6l-2-3-9-81-6-55v-9l3-8 5-5-2-5-4-7-1-4-1-17v-35l3-17 5-13 6-10 9-10 7-7 16-10 11-5 11-3h22l15 4 17 7 17 9 11 7 4-1 21-12 26-12 25-9z" fill="#FEFEFE"/>
<path transform="translate(400,429)" d="m0 0h6l6 4 7 8 16 24 13 21 12 21 15 29 15 31 16 38 16 42 7 22 5 24 2 17v39l-4 32-6 30-8 31-12 43-21 77-5 18-4 5-5-1v-9l9-42 13-62 6-37 4-33 2-30v-45l-2-25-5-30-6-23-8-22-12-25-10-15-9-8-8-3-15-3-10-7-7-10-6-14-5-22-3-19-3-41v-23l3-6z" fill="#FEFEFE"/>
<path transform="translate(749,256)" d="m0 0h134v266l-2-2-11-28-16-37-16-35-12-25-10-21-10-19-17-32-14-24-13-22-13-20z" fill="#FEFEFE"/>
<path transform="translate(1325,1298)" d="m0 0h70v225h-70z" fill="#000101"/>
<path transform="translate(330,730)" d="m0 0 5 1 9 20 7 9 7 4h9l10-6 13-14 9-6 6-2h14l11 4 15 9 9 8 9 14 6 16 3 16 2 23v21l-2 35-8 91-1 14-2 7-4 1-4-4-2-51-3-39-4-29-5-21-6-16-7-10-7-6-4-2h-15l-12 5-14 5-5 1h-9l-9-3-6-5-5-9-4-12-7-59v-8z" fill="#FEFEFE"/>
<path transform="translate(413,617)" d="m0 0h17l13 4 10 7 8 7 10 14 9 19 7 23 4 21 2 19 1 30-2 36-2 14-1 2-5-1-3-9-8-27-6-17-9-20-9-15-11-12-8-6-9-4-5-1h-8l-9 2-12 6-9 7h-2l-2 5-10 10-4 2h-7l-4-6-1-6v-12l3-22 6-35 12-12 15-11 15-8z" fill="#FEFEFE"/>
<path transform="translate(393,1347)" d="m0 0h18l13 4 9 6 7 8 6 12 3 13 1 10v17l-2 18-4 15-6 10-7 7-12 6-10 2h-12l-13-3-10-6-8-8-6-12-3-11-1-7v-34l3-15 5-12 7-9 10-7z" fill="#FEFEFE"/>
<path transform="translate(1546,341)" d="m0 0h6l3 3-1 9-6 12-14 23-10 15-13 17-11 12-10 10-13 9-10 5-11 3h-17l-10-3-9-6-6-8-4-9-5-16-6-8-2-1h-6l-8 7-6 7-7 4h-7l-4-4-2-7v-21l3-12 6-10 9-8 9-4 14-1 9 2 9 5 10 9 7 8 10 14 8 7 10 4h7l10-4 9-7 52-52z" fill="#FEFEFE"/>
<path transform="translate(108,1023)" d="m0 0 4 5 14 19 12 14 11 12 21 21 11 9 13 11 18 13 21 14 15 9 21 12 4 3h-165z" fill="#FEFEFE"/>
<path transform="translate(456,425)" d="m0 0 7 1 17 10 40 25 11 9 9 10 8 13 7 17 4 19 2 11 5 9 5 6 14 9 15 6 8 3 1 4-5 3-27 4h-35l-16-3-11-4-8-6-5-6-1-4 4-13 1-5v-16l-3-10-7-9-8-6-17-8-7-6-5-8-3-11-1-20v-23z" fill="#FEFEFE"/>
<path transform="translate(352,434)" d="m0 0h2l8 10 9 11 13 16 2 4v10l-5 12-7 11-4 11v14l5 10 9 8 11 7 10 9 5 8 1 3v7l-4 10-9 10-9 8-45 30-7 1-2-2 1-6 7-11 4-11 1-13-3-12-12-20-5-11-3-12-1-8v-13l3-20 6-21 7-20 11-28z" fill="#FEFEFE"/>
<path transform="translate(374,319)" d="m0 0h19l9 4 5 5 6 9 5 16 3 10 7 8 7 3h15l12-4 14-8 14-9 13-5h9l5 3 1 2v9l-5 12-9 13-11 12-11 9-12 6-9 2h-13l-11-3-13-7-13-11-9-11-8-9-10-7-6-2h-9l-8 4-6 8-5 11-4 10-3 2-5-1-2-2-4-25-3-21 1-9 6-9 10-7 16-6z" fill="#FEFEFE"/>
<path transform="translate(1555,400)" d="m0 0 4 1-3 10-15 31-10 17-10 14-9 11-13 13-16 11-15 7-18 5-8 1h-33l-20-3-25-6-21-7 4-7 13-18 10-14h3l13 8 13 6 13 3h20l16-4 16-8 11-7 13-11 20-15 17-13 16-13 10-9z" fill="#FEFEFE"/>
<path transform="translate(640,809)" d="m0 0 4 1 1 4-9 27-8 18-8 16-9 14-11 13-8 8-10 6-4 2h-12l-6-4-5-4h-8l-8 7-8 16-6 18-8 31-2 2-4-1-1-1v-13l3-36 5-33 5-20 8-21 9-17 8-9 7-3 7 1 6 4 6 7 7 11 6 5h9l10-6 9-9 11-15 12-18z" fill="#FEFEFE"/>
<path transform="translate(863 1e3)" d="m0 0h1v139h-127l5-5 16-12 16-13 12-11 10-9 16-17 9-11 14-18 16-24z" fill="#00FE00"/>
<path transform="translate(1325,942)" d="m0 0 5 1 1 2 1 24 2 12 5 12 6 7 8 4 4 1h15l6-1h18l10 3 8 6 8 9 5 12 2 9v28l-4 20-8 24-4 6-5-1v-43l-4-15-6-10-8-6-9-3h-33l-12-3-12-6-10-9-6-7-5-10-2-10 1-11 16-35 5-9z" fill="#FEFEFE"/>
<path transform="translate(108,256)" d="m0 0h117l-6 7-111 111z" fill="#FEFEFE"/>
<path transform="translate(1376,895)" d="m0 0 10 1 12 5 13 8 10 9 8 9 8 16 4 18 1 11v19l-3 34-2 6-4 1-3-5-6-25-6-16-7-13-7-8-5-3-9-1-8 4-12 12-10 5-5-1-4-5-2-5-1-6v-36l4-15 7-11 9-6z" fill="#FEFEFE"/>
<path transform="translate(783,274)" d="m0 0h81v162l-2-1-14-34-15-33-8-17-10-19-13-24-13-22-6-9z" fill="#00FE00"/>
<path transform="translate(1525,804)" d="m0 0h10l8 5 6 9 4 11 3 15v26l-2 12-4 7-7 1-10-6-8-7-8-4h-7l-6 5-4 12-2 16v29l-2 5h-5l-2-2-17-73v-16l6-12 9-10 11-9 14-9 9-4z" fill="#FEFEFE"/>
<path transform="translate(1422,855)" d="m0 0 9 1 8 6 8 9 9 15 8 20 6 20 4 18 4 29 1 16v20l-3 16-6 20-11 27-14 29-13 24-7 11-5 4-2-1v-7l11-28 11-31 8-28 6-27 3-19 1-10v-27l-2-14-4-14-10-13-14-21-9-16-4-13v-8l4-6z" fill="#FEFEFE"/>
<path transform="translate(639,696)" d="m0 0 4 2-1 10-15 56-6 21-6 8-5 4-7 2-18 2-13 5-11 7-5 4-2 1h-7l-4-5v-8l6-38 5-13 4-6 6-5 7-3 17-3 16-8 9-7 12-11 12-14z" fill="#FEFEFE"/>
<path transform="translate(581,608)" d="m0 0h15l9 4 9 7 7 10 5 12 2 10v15l-4 13-4 5-3 1h-11l-12-4-10-6-4-2-16 29-12 21-5 1-1-1-1-7v-46l3-18 5-16 7-13 6-7 9-6z" fill="#FEFEFE"/>
<path transform="translate(390,841)" d="m0 0h14l7 3 8 7 6 9 5 12 6 29 4 30 4 40v15l-1 2-4-1-4-6-9-31-7-19-8-17-10-15-7-7-4-2-5 1-3 7-1 12-3 1-7-6-7-12-4-12v-11l5-12 10-10 8-5z" fill="#FEFEFE"/>
<path transform="translate(350,1662)" d="m0 0h36l8 3 4 4 2 7-1 9-4 6-4 3h-3v2l4 2 6 9 5 11v2h2l2-9 17-48 1-1h19l20 57v2h-18l-3-9-19-1-2 10h-37l-12-22-6-2v24h-17z" fill="#000101"/>
<path transform="translate(849,1772)" d="m0 0h17l3 6 12 37 1 5 14-41 3-7h16l2 7 10 64-1 4h-14l-1-1-6-48-1-1-16 48-1 2h-9l-4-10-13-41-1-1-6 51-1 1h-15l2-16 8-54z" fill="#000101"/>
<path transform="translate(1323,1048)" d="m0 0 12 2 8 4 10 9 8 10 8 15 8 24 2 8-1 7-5 1-6-9-7-11-9-10-8-5-3-1h-7l-5 5-4 16-3 4-5-1-5-5-5-8-6-15-3-13v-10l3-7 5-5 11-4z" fill="#FEFEFE"/>
<path transform="translate(1544,923)" d="m0 0 5 1 2 28 1 19v24l-2 2-5-1-8-6-5-2-8 1-8 7-5 12-3 15-2 23-3 3-5-1-1-3-3-42v-24l3-5 9-10 24-26 9-10z" fill="#FEFEFE"/>
<path transform="translate(481,1795)" d="m0 0h12l7 4 3 3 1-5h14v57l-3 8-5 4-7 3h-21l-9-4-5-6v-5h16l4 4h9l4-2 2-5 1-10h-2l-2 4-7 3h-12l-8-4-6-8-2-6v-17l4-10 7-6z" fill="#000101"/>
<path transform="translate(707,1768)" d="m0 0h14v79h-14l-1-5-6 5-7 2-10-1-6-3-6-7-3-8v-17l4-9 4-5 8-4h12l6 3 4 4z" fill="#000101"/>
<path transform="translate(579,1661)" d="m0 0h12l11 4 5 4 6 12 1 14-2 10-4 8-7 6-9 3h-14l-9-3-7-6-5-10-1-6v-11l3-10 5-8 10-6z" fill="#000101"/>
<path transform="translate(306,1661)" d="m0 0h11l10 3 8 7 4 7 1 4v19l-4 10-4 5-6 4-7 2h-14l-9-3-7-6-5-10-1-4v-14l3-10 6-8 9-5z" fill="#000101"/>
<path transform="translate(126,1661)" d="m0 0h11l10 3 8 7 4 8 1 3v19l-4 10-5 5-8 5-4 1h-14l-11-4-7-8-4-11v-15l4-11 6-7 8-4z" fill="#000101"/>
<path transform="translate(1143,1768)" d="m0 0h13v79h-13l-2-5-5 5-7 2h-7l-8-3-6-5-4-8-1-4v-15l4-10 4-5 8-4h12l6 3 6 5z" fill="#000101"/>
<path transform="translate(1420,1662)" d="m0 0h32l9 4 6 7 3 7 1 7v9l-2 11-4 6-7 6-7 2h-31z" fill="#000101"/>
<path transform="translate(1535,1025)" d="m0 0 7 1 3 4 2 9 2 25v30l-2 13-5 9-7 7-24 12-9 4h-9l-1-3 4-6 13-8 6-7 3-8 5-46 4-24 3-8z" fill="#FEFEFE"/>
<path transform="translate(627,1343)" d="m0 0h35l14 2 8 4 5 7 1 3v13l-3 6-5 5-9 4-11 2h-35z" fill="#FEFEFE"/>
<path transform="translate(617,1795)" d="m0 0h12l7 4 3 3 1-5h14v49l-1 1h-13l-1-5-6 5-7 2-11-1-7-4-5-7-3-11v-8l3-12 7-8z" fill="#000101"/>
<path transform="translate(1308,1795)" d="m0 0h12l6 3 4 4 1-5h14v50h-14l-1-5-6 5-7 2-11-1-6-4-5-6-3-8v-17l4-10 7-6z" fill="#000101"/>
<path transform="translate(752,1795)" d="m0 0h13l8 5 1 3h2v-7l13 1v50h-13l-2-4-5 4-7 2h-7l-8-3-5-4-5-9-1-5v-13l3-9 4-6 6-4z" fill="#000101"/>
<path transform="translate(1244,1662)" d="m0 0h36l8 3 5 6 1 3v9l-3 6-6 5h-3v2l4 2 6 9 6 12v2h-19l-12-22-6-2v24h-17z" fill="#000101"/>
<path transform="translate(170,1662)" d="m0 0h36l8 3 4 5 2 10-3 9-6 5-3 1 5 4 4 6 7 16h-20l-10-20-3-3-4-1v24h-17z" fill="#000101"/>
<path transform="translate(988,1662)" d="m0 0h36l8 3 4 5 1 2v13l-5 7-6 3 5 4 11 21v1h-20l-10-20-3-3-4-1v24h-17z" fill="#000101"/>
<path transform="translate(777,1662)" d="m0 0h16l7 10 13 20 1-30h16v59h-16l-7-10-12-19v-2h-2v31h-16z" fill="#000101"/>
<path transform="translate(623,1662)" d="m0 0h16l11 17 9 14 1-31h16v59h-17l-12-19-7-11-1 30h-16z" fill="#000101"/>
<path transform="translate(1466,1795)" d="m0 0h14l8 3 9 8 4 10v11l-3 9-6 7-10 5-5 1h-8l-10-3-8-6-4-6-2-7v-11l4-10 9-8z" fill="#000101"/>
<path transform="translate(128,1076)" d="m0 0 5 5 8 10 9 10 11 11 17 13 19 12 11 6v2h-80z" fill="#00FE00"/>
<path transform="translate(1613,1662)" d="m0 0h17v21l18-1 1-20h17v59h-17l-1-23-18-1v24h-17z" fill="#000101"/>
<path transform="translate(353,1772)" d="m0 0h18l15 47 1 10h2l1-9 15-47 1-1h17l-3 10-9 24-8 23-7 18h-16l-10-26-8-23-9-24z" fill="#000101"/>
<path transform="translate(1677,1662)" d="m0 0h17l1 39 3 5 1 1h9l3-3 1-2 1-40h17v42l-4 9-8 7-6 2h-15l-10-3-7-7-3-10z" fill="#000101"/>
<path transform="translate(713,1662)" d="m0 0h17l1 40 2 4 2 1h9l3-3 1-3 1-39h17v40l-4 11-8 7-6 2h-16l-9-3-5-4-4-7-1-5z" fill="#000101"/>
<path transform="translate(932,1662)" d="m0 0h45v13h-28v9h26v12h-26v12h29v13h-47v-58z" fill="#000101"/>
<path transform="translate(1838,1662)" d="m0 0h19l20 56v3h-18l-2-10-19 1-3 9h-17l2-9 17-49z" fill="#000101"/>
<path transform="translate(1349,1662)" d="m0 0h19l17 48 3 11h-18l-2-10-19 1-3 9h-18l7-21 13-37z" fill="#000101"/>
<path transform="translate(425,1662)" d="m0 0h19l20 57v2h-18l-3-9-19-1-2 10h-18l11-33 9-25z" fill="#000101"/>
<path transform="translate(1199,1662)" d="m0 0h19l20 57v2h-18l-3-9-19-1-2 10h-18l10-30 10-28z" fill="#000101"/>
<path transform="translate(1480,1662)" d="m0 0h45l1 2v10l-1 1h-28v9h26v12h-26v12h29v13h-46z" fill="#000101"/>
<path transform="translate(230,1662)" d="m0 0h33l7 3 5 6 1 2v14l-3 6-5 4-5 2h-16v22h-18v-58z" fill="#000101"/>
<path transform="translate(1064,1661)" d="m0 0h12l9 3 5 5 3 9-1 1-15 1-4-6-7-1-3 2 1 4 21 7 8 7 2 7-1 8-3 6-7 6-7 2h-15l-9-3-6-7-3-9 2-2h15l3 7 2 1h9l2-2v-5l-4-3-16-5-8-6-3-7 1-8 4-6 5-4z" fill="#000101"/>
<path transform="translate(1059,1795)" d="m0 0h14l9 4 6 7 3 7v12h-37l3 7 5 3h7l10-5 10 5-2 5-8 6-10 3-13-1-8-4-6-7-3-8v-14l4-9 5-6 7-4z" fill="#000101"/>
<path transform="translate(1753,1357)" d="m0 0 2 4 22 72v4h-48l2-10 21-69z" fill="#FEFEFE"/>
<path transform="translate(1485,1063)" d="m0 0h6l7 8 5 12 3 14v9l-3 7-1 1h-6l-8-6h-5l-3 1-2 4-7 9-12 14-5 6-4-1 1-7 9-25 11-26 8-14z" fill="#FEFEFE"/>
<path transform="translate(489,1661)" d="m0 0h11l9 3 6 5 4 7v4l-12 3h-3l-3-5-3-2h-7l-5 4-2 8 1 13 3 5 2 1h9l4-5 2-5 11 3 4 2-3 9-7 8-8 3h-14l-11-4-7-8-3-8-1-6v-9l3-12 6-8 6-4z" fill="#000101"/>
<path transform="translate(66,1661)" d="m0 0h11l9 3 5 4 5 9v3l-12 3h-3l-4-6-2-1h-8l-4 4-2 6v11l2 7 3 3h9l4-3 3-7 11 3 4 2-3 9-6 7-6 3-4 1h-14l-10-4-7-8-3-7-1-5v-14l4-11 6-7 8-4z" fill="#000101"/>
<path transform="translate(866,1662)" d="m0 0h18l12 40 5-16 7-23 1-1h17l-12 36-8 23h-19l-5-12-16-45z" fill="#000101"/>
<path transform="translate(1e3 1795)" d="m0 0h13l6 3 4 5 2 7v36l-1 1h-14l-1-32-2-5-2-2h-8l-5 3-2 4-1 8-1 24h-14v-50h14l1 5 8-6z" fill="#000101"/>
<path transform="translate(1174,1797)" d="m0 0h15l1 32 1 4 4 1h9l4-1 1-4 1-32h15v33l-3 9-5 6-7 3-6 1h-9l-11-3-5-4-4-8-1-4z" fill="#000101"/>
<path transform="translate(1542,1795)" d="m0 0h13l7 4 4 6v42h-14l-1-25-1-10-4-4h-8l-5 4-2 10-1 25h-14v-50h14l1 5 8-6z" fill="#000101"/>
<path transform="translate(1129,1662)" d="m0 0h52v15h-17v44h-17v-44h-17l-1-1z" fill="#000101"/>
<path transform="translate(1772,1662)" d="m0 0h16l1 1v44h26v14h-44v-58z" fill="#000101"/>
<path transform="translate(1536,1662)" d="m0 0h16l1 1v44h26v14h-44v-58z" fill="#000101"/>
<path transform="translate(1379,1795)" d="m0 0h15l6 3v14l-5-2-3-1h-8l-5 3-3 4v11l5 6 2 1h10l7-4v15l-5 3-5 1h-7l-10-3-7-5-5-8-1-3v-17l4-8 8-7z" fill="#000101"/>
<path transform="translate(129,275)" d="m0 0h49l-2 4-44 44-1 2h-2z" fill="#00FE00"/>
<path transform="translate(1259,1795)" d="m0 0h14l6 2v15l-7-3h-9l-5 3-3 7 1 9 5 5 2 1h10l6-4v16l-9 3h-8l-10-3-8-7-4-9-1-4v-8l3-10 4-6 7-5z" fill="#000101"/>
<path transform="translate(570,1768)" d="m0 0h15v78l-1 1h-14z" fill="#000101"/>
<path transform="translate(1305,1662)" d="m0 0h16l1 1v58h-18v-58z" fill="#000101"/>
<path transform="translate(1742,1662)" d="m0 0h17v59h-17z" fill="#000101"/>
<path transform="translate(1104,1662)" d="m0 0h17v59h-17z" fill="#000101"/>
<path transform="translate(842,1662)" d="m0 0h17v59h-17z" fill="#000101"/>
<path transform="translate(529,1662)" d="m0 0h17v59h-17z" fill="#000101"/>
<path transform="translate(940,1797)" d="m0 0h15v50h-14l-1-1z" fill="#000101"/>
<path transform="translate(434,1797)" d="m0 0h15v50h-14l-1-1z" fill="#000101"/>
<path transform="translate(1415,1797)" d="m0 0h14v50h-14z" fill="#000101"/>
<path transform="translate(537,1797)" d="m0 0h14v50h-14z" fill="#000101"/>
<path transform="translate(581,1675)" d="m0 0h8l5 4 2 4v17l-3 6-3 2h-10l-5-5-2-7v-9l3-8z" fill="#FEFEFE"/>
<path transform="translate(308,1675)" d="m0 0h8l5 4 2 5v16l-3 6-3 2h-10l-5-5-2-6v-11l3-7z" fill="#FEFEFE"/>
<path transform="translate(128,1675)" d="m0 0h7l6 4 2 5v15l-3 6-4 3h-9l-5-5-2-5v-12l3-7z" fill="#FEFEFE"/>
<path transform="translate(760,1807)" d="m0 0h7l5 3 4 6v10l-3 6-4 3-8 1-6-3-3-4-1-4v-7l3-7z" fill="#FEFEFE"/>
<path transform="translate(1128,1807)" d="m0 0 8 1 5 4 2 5v9l-3 6-4 3-8 1-6-3-3-4-1-4v-7l3-7 4-3z" fill="#FEFEFE"/>
<path transform="translate(624,1807)" d="m0 0h8l5 3 3 6v11l-3 5-4 3-7 1-7-3-3-5-1-9 3-8z" fill="#FEFEFE"/>
<path transform="translate(1315,1807)" d="m0 0h8l6 4 2 4v13l-3 5-7 3-8-1-6-7v-13l6-7z" fill="#FEFEFE"/>
<path transform="translate(693,1807)" d="m0 0 8 1 5 5 2 6-1 10-4 5-6 2-7-1-5-4-2-4v-11l4-6z" fill="#FEFEFE"/>
<path transform="translate(1471,1808)" d="m0 0 8 1 5 4 2 5v8l-4 6-5 3h-8l-5-3-3-4-1-3v-7l3-6 4-3z" fill="#FEFEFE"/>
<path transform="translate(487,1808)" d="m0 0h10l6 5 1 2v13l-3 5-7 3-7-1-6-5-1-2v-12l4-6z" fill="#FEFEFE"/>
<path transform="translate(1437,1675)" d="m0 0h7l6 3 3 5v18l-3 5-5 2h-8z" fill="#FEFEFE"/>
<path transform="translate(1418,1768)" d="m0 0h8l4 4 1 7-4 5-7 1-5-3-2-4 1-6z" fill="#000101"/>
<path transform="translate(540,1768)" d="m0 0h8l5 6-1 7-5 4h-6l-5-4-1-7z" fill="#000101"/>
<path transform="translate(944,1768)" d="m0 0h7l5 4v8l-4 4-7 1-5-4-1-2v-6z" fill="#000101"/>
<path transform="translate(438,1768)" d="m0 0h7l5 5v7l-4 4-7 1-5-4-1-2v-6z" fill="#000101"/>
<path transform="translate(1474,1771)" d="m0 0h13l-2 4-12 14h-8l2-5z" fill="#000101"/>
<path transform="translate(1261,1674)" d="m0 0h12l4 4-1 5-5 3h-10z" fill="#FEFEFE"/>
<path transform="translate(367,1674)" d="m0 0h12l3 2v7l-5 3h-10z" fill="#FEFEFE"/>
<path transform="translate(187,1674)" d="m0 0h12l3 3v6l-5 3h-10z" fill="#FEFEFE"/>
<path transform="translate(1e3 1674)" d="m0 0h12l3 3v6l-5 3h-10z" fill="#FEFEFE"/>
<path transform="translate(1062,1807)" d="m0 0h7l5 3 2 3v3h-22l2-5 3-3z" fill="#FEFEFE"/>
<path transform="translate(247,1674)" d="m0 0h8l5 5-1 6-3 2h-9z" fill="#FEFEFE"/>
<path transform="translate(1357,1679)" d="m0 0h2l5 17-1 3h-10l-1-2z" fill="#FEFEFE"/>
<path transform="translate(433,1679)" d="m0 0h2l5 19-1 1h-10l-1-3z" fill="#FEFEFE"/>
<path transform="translate(1847,1679)" d="m0 0 2 3 4 16-1 1h-10l-1-2 5-17z" fill="#FEFEFE"/>
<path transform="translate(1207,1679)" d="m0 0h2l5 19-1 1h-10l-1-3z" fill="#FEFEFE"/>
<path transform="translate(585,1646)" d="m0 0 12 1-6 7-4 4-8 1 1-5z" fill="#000101"/>
</svg>
